<svg width="310" height="54" viewBox="0 0 310 54" fill="none" xmlns="http://www.w3.org/2000/svg" role="img" aria-labelledby="title desc">
  <title id="title">MIRAI ALIGN DENTAL</title>
  <desc id="desc">歯の線画アイコンとMIRAI ALIGN DENTALのロゴ</desc>
  <path d="M24.4 6.5c-7.7 0-13.5 5.8-13.5 14.1 0 9.4 6.7 15.2 8.7 25.5 1.1 5.3 3.4 9.8 7.6 9.8 3.5 0 4.8-5.7 7.2-14.5 2.4 8.8 3.8 14.5 7.2 14.5 4.2 0 6.5-4.5 7.6-9.8 2-10.3 8.7-16.1 8.7-25.5 0-8.3-5.8-14.1-13.5-14.1-4.3 0-7.5 2-10 5-2.5-3-5.7-5-10-5Z" stroke="#1596C5" stroke-width="3.1" stroke-linejoin="round"/>
  <path d="M22.5 28.8c7.2 4.7 16.6 4.7 23.8 0" stroke="#1596C5" stroke-width="2.7" stroke-linecap="round" opacity=".78"/>
  <text x="76" y="23" fill="#0B5788" font-family="Inter, Avenir Next, Helvetica, Arial, sans-serif" font-size="19" font-weight="800" letter-spacing="1.4">MIRAI ALIGN</text>
  <text x="76" y="43" fill="#1596C5" font-family="Inter, Avenir Next, Helvetica, Arial, sans-serif" font-size="13" font-weight="800" letter-spacing="3.7">DENTAL</text>
</svg>
